{"title":"Cats And Dogs The Revenge Of Kitty Galore.V2 TS.X264.SDteam.http","uid":5745061,"size":1353397858,"categoryP":"video","categoryS":"movies","magnet":"?xt=urn:btih:4d4d444571843f1001bd94be6dc2c483125bb4b4&amp;dn=Cats+And+Dogs+The+Revenge+Of+Kitty+Galore.V2+TS.X264.SDteam.http&amp;tr=udp%3A%2F%2Ftracker.openbittorrent.com%3A80&amp;tr=udp%3A%2F%2Fopen.demonii.com%3A1337&amp;tr=udp%3A%2F%2Ftracker.coppersurfer.tk%3A6969&amp;tr=udp%3A%2F%2Fexodus.desync.com%3A6969","seeders":0,"leechers":0,"uploader":"bg2k9","files":94,"time":1281139451,"description":"Language.....: English -(GREETZ TO THE GREATZ:\n[b][color=#FF0000] &lt;a href=&quot;\nhttp://www.seedboxworld.com(&quot; rel=&quot;nofollow&quot; target=&quot;_NEW&quot;&gt;\nhttp://www.seedboxworld.com(&lt;/a&gt; for your cheap fast seedbox needs )\n\n\nBadGirl2k9  \t \t \t\nUnDeaD \nalgpz500 \t\t\t\nvirusofsaten \t \t\t\nWICCYWOLF\t\nFoxyB \t\t\t \t\t\nJoker321[/color][/b]\n &lt;a href=&quot;\nhttp://www.imdb.com/title/tt1287468/&quot; rel=&quot;nofollow&quot; target=&quot;_NEW&quot;&gt;\nhttp://www.imdb.com/title/tt1287468/&lt;/a&gt;\n\nThe ongoing war between the canine and feline species is put on hold when they join\n forces to thwart a rogue cat spy with her own sinister plans for conquest.\n\nCats And Dogs The Revenge Of Kitty Galore.V2 TS.X264.SDteam\n\n\nFormat                           : Matroska\nFile size                        : 345 MiB\nDuration                         : 1h 16mn\nOverall bit rate                 : 633 Kbps\n\nVideo\nID                               : 1\nFormat                           : AVC\nFormat/Info                      : Advanced Video Codec\nFormat profile                   : &lt;a class=&quot;__cf_email__&quot; href=&quot;/cdn-cgi/l/email-protection&quot; data-cfemail=&quot;276f4e404f676b150916&quot;&gt;[email&amp;#160;protected]&lt;/a&gt;&lt;script data-cfhash='f9e31' type=&quot;text/javascript&quot;&gt;\n/* &lt;![CDATA[ */!function(){try{var t=&quot;currentScript&quot;in document?document.currentScript:function(){for(var t=document.getElementsByTagName(&quot;script&quot;),e=t.length;e--;)if(t[e].getAttribute(&quot;data-cfhash&quot;))return t[e]}();if(t&amp;&amp;t.previousSibling){var e,r,n,i,c=t.previousSibling,a=c.getAttribute(&quot;data-cfemail&quot;);if(a){for(e=&quot;&quot;,r=parseInt(a.substr(0,2),16),n=2;a.length-n;n+=2)i=parseInt(a.substr(n,2),16)^r,e+=String.fromCharCode(i);e=document.createTextNode(e),c.parentNode.replaceChild(e,c)}t.parentNode.removeChild(t);}}catch(u){}}()/* ]]&gt; */&lt;/script&gt;\nFormat settings, CABAC           : Yes\nFormat settings, ReFrames        : 4 frames\nMuxing mode                      : Container profile=&lt;a class=&quot;__cf_email__&quot; href=&quot;/cdn-cgi/l/email-protection&quot; data-cfemail=&quot;affac1c4c1c0d8c1ef9d819e&quot;&gt;[email&amp;#160;protected]&lt;/a&gt;&lt;script data-cfhash='f9e31' type=&quot;text/javascript&quot;&gt;\n/* &lt;![CDATA[ */!function(){try{var t=&quot;currentScript&quot;in document?document.currentScript:function(){for(var t=document.getElementsByTagName(&quot;script&quot;),e=t.length;e--;)if(t[e].getAttribute(&quot;data-cfhash&quot;))return t[e]}();if(t&amp;&amp;t.previousSibling){var e,r,n,i,c=t.previousSibling,a=c.getAttribute(&quot;data-cfemail&quot;);if(a){for(e=&quot;&quot;,r=parseInt(a.substr(0,2),16),n=2;a.length-n;n+=2)i=parseInt(a.substr(n,2),16)^r,e+=String.fromCharCode(i);e=document.createTextNode(e),c.parentNode.replaceChild(e,c)}t.parentNode.removeChild(t);}}catch(u){}}()/* ]]&gt; */&lt;/script&gt;\nCodec ID                         : V_MPEG4/ISO/AVC\nDuration                         : 1h 16mn\nBit rate                         : 492 Kbps\nNominal bit rate                 : 500 Kbps\nWidth                            : 688 pixels\nHeight                           : 288 pixels\nDisplay aspect ratio             : 2.35:1\nOriginal display aspect ratio    : 2.35:1\nFrame rate mode                  : Variable\nFrame rate                       : 25.000 fps\nResolution                       : 8 bits\nColorimetry                      : 4:2:0\nScan type                        : Progressive\nBits/(Pixel*Frame)               : 0.099\nStream size                      : 269 MiB (78%)\nAudio\nID                               : 2\nFormat                           : MPEG Audio\nFormat version                   : Version 1\nFormat profile                   : Layer 3\nCodec ID                         : A_MPEG/L3\nCodec ID/Hint                    : MP3\nDuration                         : 1h 16mn\nBit rate mode                    : Constant\nBit rate                         : 128 Kbps\nChannel(s)                       : 2 channels\nSampling rate                    : 44.1 KHz\nStream size                      : 69.8 MiB (20%)\n\n\n","torrent":{"xt":"urn:btih:4d4d444571843f1001bd94be6dc2c483125bb4b4","amp;dn":"Cats+And+Dogs+The+Revenge+Of+Kitty+Galore.V2+TS.X264.SDteam.http","amp;tr":["udp%3A%2F%2Ftracker.openbittorrent.com%3A80","udp%3A%2F%2Fopen.demonii.com%3A1337","udp%3A%2F%2Ftracker.coppersurfer.tk%3A6969","udp%3A%2F%2Fexodus.desync.com%3A6969"],"infoHash":"4d4d444571843f1001bd94be6dc2c483125bb4b4","infoHashBuffer":{"type":"Buffer","data":[77,77,68,69,113,132,63,16,1,189,148,190,109,194,196,131,18,91,180,180]},"announce":[],"urlList":[]}}